:version 1.10
:name ASF
:units
  mass 1
  length 1
  angle deg
:documentation
  ASF file generated by Kaydara
:root
  axis xyz
  order  tx ty tz rx ry rz
  position 0 0 0
  orientation 0 0 0
:bonedata
  begin
    id 1
    name LeftUpLegDummy
    direction 1 -2.30186e-007 -8.31532e-007
    length 2.93387
    axis 0 0 0 xyz
  end
  begin
    id 2
    name LeftUpLeg
    direction -1.82929e-007 -1 -1.48925e-009
    length 17.3336
    axis -3.48766 0.00143442 -0.000521554 xyz
    dof rx ry rz
  end
  begin
    id 3
    name LeftLeg
    direction -1.82929e-007 -1 -5.23717e-011
    length 14.9995
    axis 3.68178 -0.00654042 -0.000282425 xyz
    dof rx ry rz
  end
  begin
    id 4
    name LeftFoot
    direction 8.31532e-007 -4.54534e-011 1
    length 6.74421
    axis 1.87234e-006 4.66016e-005 -5.96866e-006 xyz
    dof rx ry rz
  end
  begin
    id 5
    name LeftToes
    direction 0.00818058 -0.00485161 0.999955
    length 3.85048
    axis 1.06247e-005 4.65869e-005 -5.96999e-006 xyz
    dof rx ry rz
  end
  begin
    id 6
    name SpineDummy
    direction -5.8607e-008 0.943407 -0.331637
    length 5.93572
    axis 0 0 0 xyz
  end
  begin
    id 7
    name Spine
    direction -1.04988e-007 0.999988 0.00495137
    length 10.1015
    axis -0.001389 0.000121417 6.61666e-006 xyz
    dof rx ry rz
  end
  begin
    id 8
    name Spine1
    direction 0 0 0
    length 0
    axis -0.001389 0.00012144 6.56766e-006 xyz
    dof rx ry rz
  end
  begin
    id 9
    name RightShoulderDummy
    direction -0.98348 0.17941 -0.0240696
    length 3.59882
    axis -0.001389 0.00012144 6.56766e-006 xyz
  end
  begin
    id 10
    name RightShoulder
    direction -0.978693 0.204882 0.0135597
    length 2.70001
    axis 0.215806 0.000203631 -0.00679732 xyz
    dof rx ry rz
  end
  begin
    id 11
    name RightArm
    direction -1 3.85509e-006 8.31394e-007
    length 10.2459
    axis -23.2009 -0.134239 -0.964098 xyz
    dof rx ry rz
  end
  begin
    id 12
    name RightForeArm
    direction -1 3.85569e-006 8.3129e-007
    length 8.16799
    axis -9.92322 0.0658061 0.17887 xyz
    dof rx ry rz
  end
  begin
    id 13
    name RightHand
    direction -0.992843 -0.0414604 0.112003
    length 5.28593
    axis -0.00960638 0.00330669 -0.185225 xyz
    dof rx ry rz
  end
  begin
    id 14
    name LeftShoulder1Dummy
    direction 0.983523 0.179172 -0.0240748
    length 3.59866
    axis -0.001389 0.00012144 6.56766e-006 xyz
  end
  begin
    id 15
    name LeftShoulder1
    direction 0.978627 0.205195 0.0135605
    length 2.70019
    axis -0.001389 0.00012144 6.57583e-006 xyz
    dof rx ry rz
  end
  begin
    id 16
    name LeftArm
    direction 1 3.51895e-006 -8.60188e-007
    length 10.2459
    axis -23.1894 0.134785 0.967513 xyz
    dof rx ry rz
  end
  begin
    id 17
    name LeftForeArm
    direction 1 3.51921e-006 -7.32029e-007
    length 8.16799
    axis -9.91835 -0.0656957 -0.177789 xyz
    dof rx ry rz
  end
  begin
    id 18
    name LeftHand
    direction 0.992938 -0.0411636 0.11126
    length 5.32135
    axis -0.00960237 -0.00340661 0.185177 xyz
    dof rx ry rz
  end
  begin
    id 19
    name HEadDummy
    direction 1.01974e-006 0.999861 -0.016675
    length 2.99946
    axis -0.001389 0.00012144 6.56766e-006 xyz
  end
  begin
    id 20
    name HEad
    direction -0.0222689 0.980941 0.193023
    length 5.12695
    axis -0.001389 0.00012144 6.56766e-006 xyz
    dof rx ry rz
  end
  begin
    id 21
    name RightUpLegDummy
    direction -1 2.30186e-007 8.31532e-007
    length 2.93387
    axis 0 0 0 xyz
  end
  begin
    id 22
    name RightUpLeg
    direction -1.82966e-007 -1 1.56832e-007
    length 17.3336
    axis -3.4909 -0.000906625 0.00028951 xyz
    dof rx ry rz
  end
  begin
    id 23
    name RightLeg
    direction -1.82786e-007 -1 -1.80317e-007
    length 14.9995
    axis 3.68513 0.0193739 -0.131021 xyz
    dof rx ry rz
  end
  begin
    id 24
    name RightFoot
    direction 8.31721e-007 -4.63324e-011 1
    length 6.74421
    axis 4.81691e-005 -0.120479 -0.188785 xyz
    dof rx ry rz
  end
  begin
    id 25
    name RightToes
    direction 0.00124746 -0.014064 0.9999
    length 3.85082
    axis 0.000481921 0.542163 -0.142575 xyz
    dof rx ry rz
  end
:hierarchy
  begin
    root LeftUpLegDummy SpineDummy RightUpLegDummy
    LeftUpLegDummy LeftUpLeg
    LeftUpLeg LeftLeg
    LeftLeg LeftFoot
    LeftFoot LeftToes
    SpineDummy Spine
    Spine Spine1
    Spine1 RightShoulderDummy LeftShoulder1Dummy HEadDummy
    RightShoulderDummy RightShoulder
    RightShoulder RightArm
    RightArm RightForeArm
    RightForeArm RightHand
    LeftShoulder1Dummy LeftShoulder1
    LeftShoulder1 LeftArm
    LeftArm LeftForeArm
    LeftForeArm LeftHand
    HEadDummy HEad
    RightUpLegDummy RightUpLeg
    RightUpLeg RightLeg
    RightLeg RightFoot
    RightFoot RightToes
  end

:SAMPLES-PER-SECOND 30
:FULLY-SPECIFIED
:DEGREES
324
root  -2.12758 34.5025 -3.26848 6.03935 49.2121 -4.04058
LeftUpLeg  -12.5196 9.50536 0.447679
LeftLeg  8.68505 3.92608 0.342441
LeftFoot  2.02833 -0.00250989 0.141774
LeftToes  -12.1993 6.91067e-007 1.07128e-007
Spine  2.1964 1.42487 -0.624704
Spine1  4.41293 2.91726 -1.23699
RightShoulder  0.00961039 6.05707 8.20743
RightArm  -33.7056 -33.5285 82.2533
RightForeArm  32.969 12.9896 2.32531
RightHand  -0.139759 -6.12878 2.97701
LeftShoulder1  -0.00295324 1.31116 -11.0195
LeftArm  -8.91344 33.2043 -74.2981
LeftForeArm  26.3893 -18.3045 -3.33773
LeftHand  -0.106806 6.63133 -2.21106
HEad  -20.3907 -14.2193 -0.70894
RightUpLeg  -9.3751 -11.813 -4.41656
RightLeg  14.7113 0.658247 0.128892
RightFoot  5.80672 0.011722 0.0619267
RightToes  -43.307 -0.245425 -0.333031
325
root  -2.31524 34.5281 -3.1931 6.29288 48.4917 -3.71855
LeftUpLeg  -12.5009 9.88863 0.506086
LeftLeg  8.41483 4.35436 0.359203
LeftFoot  2.57482 -0.00443558 0.197362
LeftToes  -12.5159 6.91067e-007 1.07128e-007
Spine  2.16973 1.18266 -0.448159
Spine1  4.36022 2.41026 -0.882243
RightShoulder  0.00929655 5.64852 8.19876
RightArm  -37.0001 -33.3107 82.5924
RightForeArm  30.4402 12.8352 2.29844
RightHand  -0.204694 -6.81991 3.80064
LeftShoulder1  -0.003606 1.8034 -10.7851
LeftArm  -9.98675 33.7382 -76.6405
LeftForeArm  23.2017 -20.6702 -3.80808
LeftHand  -0.134182 3.27851 -5.04536
HEad  -20.8714 -13.0975 -1.45085
RightUpLeg  -9.27956 -11.1642 -4.16992
RightLeg  13.8785 0.18894 0.0347978
RightFoot  5.74649 0.0141707 0.0103952
RightToes  -41.9492 -0.234238 -0.325866
326
root  -2.5076 34.5138 -3.11049 7.14873 47.6993 -2.85685
LeftUpLeg  -12.7182 10.2736 0.186958
LeftLeg  8.25546 4.78276 0.381202
LeftFoot  2.98392 -0.00635768 0.250431
LeftToes  -12.9718 6.91067e-007 1.07128e-007
Spine  2.12428 0.952456 -0.38619
Spine1  4.27233 1.93909 -0.759178
RightShoulder  0.0100469 5.46666 8.00875
RightArm  -39.7533 -32.3688 82.3909
RightForeArm  30.0945 12.095 2.1621
RightHand  -0.202783 -6.79054 3.78334
LeftShoulder1  -0.00306927 1.68467 -10.7307
LeftArm  -10.2821 33.4425 -77.4646
LeftForeArm  17.9269 -21.235 -3.92223
LeftHand  -0.0830663 1.42261 -7.01876
HEad  -21.4931 -11.8728 -2.31295
RightUpLeg  -9.42125 -10.4661 -4.3319
RightLeg  13.2303 0.035221 0.00688161
RightFoot  5.17604 0.0143946 -0.00492099
RightToes  -40.7285 -0.224329 -0.3192
327
root  -2.72011 34.4552 -3.01231 7.82219 46.901 -1.86256
LeftUpLeg  -12.8718 10.5915 -0.108717
LeftLeg  8.58391 5.1639 0.441302
LeftFoot  3.02663 -0.00638144 0.273451
LeftToes  -13.8711 6.91067e-007 1.07128e-007
Spine  2.08852 0.730471 -0.412916
Spine1  4.20186 1.48415 -0.805291
RightShoulder  0.0138954 5.51582 7.92639
RightArm  -41.7244 -31.1367 81.3758
RightForeArm  30.5536 11.3469 2.02467
RightHand  -0.137215 -6.30319 2.85868
LeftShoulder1  -0.00160131 1.40578 -10.4931
LeftArm  -8.89987 32.691 -76.9996
LeftForeArm  16.691 -22.2622 -4.13217
LeftHand  -0.302912 4.42583 -8.18391
HEad  -21.5254 -10.6284 -3.02075
RightUpLeg  -9.1697 -9.59936 -4.62068
RightLeg  12.3798 -0.247902 -0.036799
RightFoot  4.26913 0.0149999 -0.0248857
RightToes  -39.4505 -0.214109 -0.311997
328
root  -2.94989 34.3744 -2.90304 8.13444 45.946 -1.03537
LeftUpLeg  -13.0777 11.1372 -0.228255
LeftLeg  9.55233 5.42176 0.55552
LeftFoot  2.70273 -0.00382022 0.255687
LeftToes  -14.7825 6.91067e-007 1.07128e-007
Spine  2.0733 0.616128 -0.451442
Spine1  4.17414 1.24974 -0.875726
RightShoulder  0.0213377 5.86842 8.20799
RightArm  -42.7143 -29.8821 79.349
RightForeArm  30.1651 10.9889 1.95954
RightHand  -0.0532493 -6.54704 1.29968
LeftShoulder1  0.000539622 0.900787 -10.4051
LeftArm  -7.06705 31.4776 -75.4691
LeftForeArm  23.5449 -20.4448 -3.76267
LeftHand  -0.16853 2.28445 -8.78068
HEad  -21.4045 -9.44171 -3.58794
RightUpLeg  -8.53115 -8.15149 -4.77625
RightLeg  11.125 -1.09616 -0.14183
RightFoot  3.36645 0.0172686 -0.0681227
RightToes  -37.8781 -0.201759 -0.302825
329
root  -3.19674 34.2881 -2.79543 8.5274 44.844 -0.364779
LeftUpLeg  -13.6295 11.5577 -0.276192
LeftLeg  10.8223 5.98519 0.74714
LeftFoot  2.32568 -0.00174658 0.244826
LeftToes  -15.6781 6.91067e-007 1.07128e-007
Spine  2.02539 0.621509 -0.495697
Spine1  4.08227 1.29369 -0.990202
RightShoulder  0.034833 6.33224 8.83511
RightArm  -43.2695 -28.3388 76.5765
RightForeArm  29.4591 10.7174 1.91048
RightHand  0.0793675 -7.17745 -0.894614
LeftShoulder1  0.00309528 0.563801 -10.8785
LeftArm  -4.53612 29.7445 -72.8925
LeftForeArm  34.1546 -17.7452 -3.22424
LeftHand  -0.0425392 0.741982 -6.86822
HEad  -21.1214 -8.2097 -4.01587
RightUpLeg  -8.12773 -6.57512 -4.79383
RightLeg  9.80243 -1.98497 -0.211227
RightFoot  2.75952 0.0184913 -0.0915212
RightToes  -36.6975 -0.192653 -0.295717
330
root  -3.46265 34.2077 -2.69105 9.06852 43.6663 0.144585
LeftUpLeg  -14.4462 11.8191 -0.249767
LeftLeg  12.0557 6.80417 0.997742
LeftFoot  2.10011 -0.00125452 0.257808
LeftToes  -16.5047 6.91067e-007 1.07128e-007
Spine  1.83573 0.746188 -0.551824
Spine1  3.69965 1.59996 -1.13993
RightShoulder  0.0517862 6.83318 9.35371
RightArm  -43.7221 -26.65 73.8265
RightForeArm  28.9632 10.4564 1.86328
RightHand  0.27147 -7.85496 -3.57957
LeftShoulder1  0.00779116 0.426399 -11.2287
LeftArm  -5.11483 27.543 -70.2364
LeftForeArm  38.7716 -15.4968 -2.78851
LeftHand  -0.0430603 1.02118 -5.16386
HEad  -20.6491 -7.10847 -4.24613
RightUpLeg  -8.40622 -6.02464 -4.70632
RightLeg  9.21151 -1.6454 -0.157709
RightFoot  2.4055 0.01579 -0.0511373
RightToes  -36.3197 -0.189771 -0.293403
